<?xml version="1.0" encoding="UTF-8"?>
<svg xmlns="http://www.w3.org/2000/svg" version="1.1" width="864" height="280" style="background: transparent;">

<path d="M0 0 C9.95230651 9.46336593 14.71916194 19.87452954 15.16015625 33.62084961 C15.35774469 54.42585395 9.0553347 70.71769303 -4.85693359 86.07617188 C-6.2835331 87.65543332 -7.6844305 89.25444607 -9.08203125 90.859375 C-14.94867735 97.52306276 -21.21540564 103.33155946 -28.3125 108.6875 C-28.83682617 109.08678711 -29.36115234 109.48607422 -29.90136719 109.89746094 C-53.42137709 127.69375903 -79.52788162 138.78549921 -108.3125 144.6875 C-107.25675781 145.16316406 -107.25675781 145.16316406 -106.1796875 145.6484375 C-92.58593949 152.07263695 -81.14798997 161.5623132 -69.26831055 170.65283203 C-61.09801857 176.88753332 -52.8258216 182.92929234 -44.3125 188.6875 C-43.58417969 189.1820166 -42.85585937 189.6765332 -42.10546875 190.18603516 C-21.53480594 204.01971707 3.14263338 218.0487147 28.5234375 219.00390625 C29.58691406 219.04580078 30.65039062 219.08769531 31.74609375 219.13085938 C32.84050781 219.17017578 33.93492187 219.20949219 35.0625 219.25 C36.73892578 219.31477539 36.73892578 219.31477539 38.44921875 219.38085938 C41.19520199 219.48647411 43.94126881 219.5885797 46.6875 219.6875 C45.31779162 226.70472065 37.55062305 231.0229846 31.90917969 234.9140625 C10.3393748 249.11369427 -17.29931646 259.55079746 -43.41796875 255.07421875 C-58.01531083 252.04647581 -70.68631216 244.83688471 -82.3125 235.6875 C-83.51326172 234.80771484 -83.51326172 234.80771484 -84.73828125 233.91015625 C-90.02054818 229.99506429 -94.13201875 225.73516523 -98.3125 220.6875 C-99.21503451 219.6424421 -100.12019582 218.59964955 -101.02734375 217.55859375 C-106.08396041 211.74244924 -110.99575993 205.86476553 -115.6875 199.75 C-121.27444739 192.50549941 -127.44409629 185.86858157 -133.78515625 179.28222656 C-135.07053966 177.94013506 -136.33470968 176.57777237 -137.59375 175.2109375 C-144.87490103 167.48217472 -154.76692802 160.62732093 -165.3125 158.6875 C-165.35930908 159.53425293 -165.40611816 160.38100586 -165.4543457 161.25341797 C-165.99257504 169.8852636 -167.01328433 178.28866349 -168.5 186.8125 C-168.68369141 187.98425781 -168.86738281 189.15601563 -169.05664062 190.36328125 C-171.30288868 203.29535472 -176.24787023 214.35923228 -186.9375 222.25 C-196.38425251 228.57570153 -206.36913937 231.8436203 -217.3125 234.6875 C-218.29863281 234.98527344 -218.29863281 234.98527344 -219.3046875 235.2890625 C-222.21373447 235.86634419 -225.03821586 235.81913334 -228 235.8125 C-229.15886719 235.81507813 -230.31773437 235.81765625 -231.51171875 235.8203125 C-234.3125 235.6875 -234.3125 235.6875 -235.3125 234.6875 C-235.60820519 227.61942465 -234.81898352 220.91609757 -233.75 213.9375 C-233.57509033 212.77629639 -233.40018066 211.61509277 -233.2199707 210.41870117 C-231.44924318 199.00262011 -229.28738533 187.66718104 -227.09814453 176.32543945 C-224.80889756 164.44690665 -222.68462329 152.5453496 -220.625 140.625 C-216.94321611 119.36561851 -216.94321611 119.36561851 -215 109.625 C-214.85280518 108.88306396 -214.70561035 108.14112793 -214.55395508 107.37670898 C-213.91427973 104.25394043 -213.17317456 101.20701265 -212.28515625 98.14453125 C-211.28429997 94.58727096 -210.66720958 91.08126283 -210.0625 87.4375 C-208.47977132 79.03349241 -205.71964416 71.09938613 -198.9375 65.5 C-181.65185126 54.1408594 -164.82602614 49.89257326 -144.3125 50.6875 C-143.26847583 72.2639995 -150.7794786 94.57575566 -155.65625 115.4375 C-155.84517822 116.25798828 -156.03410645 117.07847656 -156.22875977 117.92382812 C-156.56102504 119.36680875 -156.89941389 120.80840262 -157.24584961 122.24804688 C-158.21209515 126.46007988 -158.45149136 130.37320811 -158.3125 134.6875 C-132.94125655 127.78219949 -108.71671872 119.37263654 -87.3125 103.6875 C-86.36632812 102.9965625 -85.42015625 102.305625 -84.4453125 101.59375 C-71.46848873 91.65405519 -61.80802718 78.16239622 -59.3125 61.6875 C-58.4414019 52.5067133 -58.35063817 44.16437613 -64.3125 36.6875 C-75.87630941 25.60451427 -92.23655108 26.01939605 -107.125 26.1875 C-108.08125275 26.19303894 -109.03750549 26.19857788 -110.0227356 26.20428467 C-123.7447483 26.29753703 -136.98230058 26.99148339 -150.40722656 30.03710938 C-153.69646909 30.77345745 -156.99749446 31.42726511 -160.3046875 32.078125 C-173.9448876 34.81035864 -187.18631769 38.08575891 -200.3125 42.6875 C-201.04597656 42.9354834 -201.77945313 43.1834668 -202.53515625 43.43896484 C-214.28380602 47.41562738 -225.47513675 52.37999025 -236.68188477 57.68798828 C-237.74463623 58.19056152 -238.8073877 58.69313477 -239.90234375 59.2109375 C-240.84972412 59.66388184 -241.79710449 60.11682617 -242.77319336 60.58349609 C-244.96565916 61.53670544 -246.97920474 62.20281078 -249.3125 62.6875 C-225.00297746 19.82398051 -164.62745783 4.15261628 -120.734375 -8.33007812 C-84.33642169 -18.31363996 -31.15678698 -26.73243008 0 0 Z " fill="#42b" transform="translate(253.3125,20.3125)"/>
<path d="M0 0 C9.95230651 9.46336593 14.71916194 19.87452954 15.16015625 33.62084961 C15.35774469 54.42585395 9.0553347 70.71769303 -4.85693359 86.07617188 C-6.2835331 87.65543332 -7.6844305 89.25444607 -9.08203125 90.859375 C-14.94867735 97.52306276 -21.21540564 103.33155946 -28.3125 108.6875 C-28.83682617 109.08678711 -29.36115234 109.48607422 -29.90136719 109.89746094 C-51.14959991 125.97483018 -82.79486901 144.95069627 -110.3203125 144.18359375 C-116.32330352 143.18831978 -122.05160511 141.07036276 -127.8125 139.15234375 C-136.21672297 136.36766608 -144.50479112 135.32379836 -153.3125 134.6875 C-150.39263439 132.74092292 -148.17568121 131.90065947 -144.8515625 130.875 C-124.09849506 124.31716431 -104.90782565 116.66541876 -87.3125 103.6875 C-86.36890625 102.99785156 -85.4253125 102.30820313 -84.453125 101.59765625 C-71.47007494 91.66365582 -61.80804742 78.16252987 -59.3125 61.6875 C-58.4414019 52.5067133 -58.35063817 44.16437613 -64.3125 36.6875 C-75.87630941 25.60451427 -92.23655108 26.01939605 -107.125 26.1875 C-108.08125275 26.19303894 -109.03750549 26.19857788 -110.0227356 26.20428467 C-123.7447483 26.29753703 -136.98230058 26.99148339 -150.40722656 30.03710938 C-153.69646909 30.77345745 -156.99749446 31.42726511 -160.3046875 32.078125 C-173.9448876 34.81035864 -187.18631769 38.08575891 -200.3125 42.6875 C-201.04597656 42.9354834 -201.77945313 43.1834668 -202.53515625 43.43896484 C-214.28380602 47.41562738 -225.47513675 52.37999025 -236.68188477 57.68798828 C-237.74463623 58.19056152 -238.8073877 58.69313477 -239.90234375 59.2109375 C-240.84972412 59.66388184 -241.79710449 60.11682617 -242.77319336 60.58349609 C-244.96565916 61.53670544 -246.97920474 62.20281078 -249.3125 62.6875 C-225.00297746 19.82398051 -164.62745783 4.15261628 -120.734375 -8.33007812 C-84.33642169 -18.31363996 -31.15678698 -26.73243008 0 0 Z " fill="#694ec9" transform="translate(253.3125,20.3125)"/>
<path d="M0 0 C2.94227645 0.0085347 5.88261945 -0.02041137 8.82470703 -0.05200195 C26.59016807 -0.11811944 44.78761826 2.01717651 58.38330078 14.69604492 C62.52471011 19.15256148 65.19205407 23.82114766 67.44580078 29.44604492 C67.87892578 30.51854492 68.31205078 31.59104492 68.75830078 32.69604492 C71.19771409 46.00193569 69.39967436 58.90713338 61.96923828 70.27026367 C56.20550999 78.50204997 48.73174554 84.4995184 39.44580078 88.44604492 C38.78580078 88.44604492 38.12580078 88.44604492 37.44580078 88.44604492 C41.31126835 97.27558663 46.74999582 104.75061069 52.44580078 112.44604492 C53.66508335 114.10581007 54.88380425 115.76598793 56.10205078 117.42651367 C61.96354266 125.55966654 61.96354266 125.55966654 68.11010742 133.47290039 C70.14741372 136.48249818 69.83760944 138.91976701 69.44580078 142.44604492 C65.31011668 145.20316765 61.99108434 144.77687618 57.13330078 144.75854492 C55.86969727 144.78271484 55.86969727 144.78271484 54.58056641 144.80737305 C53.75621094 144.80801758 52.93185547 144.80866211 52.08251953 144.80932617 C51.33703857 144.81230713 50.59155762 144.81528809 49.82348633 144.81835938 C41.13636678 143.45807009 35.95523509 136.25812352 31.08642578 129.58209229 C28.11288808 125.36377286 25.25413854 121.07171176 22.42236328 116.75732422 C20.92883713 114.48270958 19.4227168 112.21683256 17.91455078 109.9519043 C16.95548524 108.50382127 15.99712508 107.05527075 15.03955078 105.60620117 C14.59172241 104.93122086 14.14389404 104.25624054 13.68249512 103.56080627 C11.92343134 100.87438375 10.46607512 98.50686793 9.44580078 95.44604492 C2.84580078 95.44604492 -3.75419922 95.44604492 -10.55419922 95.44604492 C-10.50779297 98.64807617 -10.46138672 101.85010742 -10.41357422 105.14916992 C-10.38237973 108.25022802 -10.35809127 111.35126863 -10.33447266 114.45239258 C-10.31435646 116.60774559 -10.28705997 118.76304403 -10.25244141 120.91821289 C-10.20392436 124.01616887 -10.18123049 127.11340338 -10.16357422 130.21166992 C-10.14292908 131.17534485 -10.12228394 132.13901978 -10.10101318 133.13189697 C-10.09878925 139.76145635 -10.09878925 139.76145635 -12.28955078 143.0546875 C-14.83469716 144.61837758 -16.21170676 144.94908618 -19.17919922 144.94213867 C-20.05060547 144.9427832 -20.92201172 144.94342773 -21.81982422 144.9440918 C-22.72216797 144.92411133 -23.62451172 144.90413086 -24.55419922 144.88354492 C-25.45654297 144.89063477 -26.35888672 144.89772461 -27.28857422 144.9050293 C-35.02288277 144.83066095 -35.02288277 144.83066095 -38.55419922 141.44604492 C-39.05477047 138.99534702 -39.05477047 138.99534702 -39.05540466 136.02503967 C-39.0652388 134.89919968 -39.07507294 133.77335968 -39.08520508 132.61340332 C-39.07553711 131.37747437 -39.06586914 130.14154541 -39.0559082 128.86816406 C-39.06131119 127.5671727 -39.06671417 126.26618134 -39.07228088 124.92576599 C-39.08625909 121.35537191 -39.07504904 117.78545845 -39.05856967 114.21509099 C-39.04473098 110.48001418 -39.051178 106.74496562 -39.05470276 103.00987244 C-39.05740617 96.73599493 -39.04391938 90.46230858 -39.02075195 84.18847656 C-38.99415285 76.93513019 -38.99239088 69.68210372 -39.00414032 62.4287253 C-39.01492103 55.45281765 -39.00872801 48.47702571 -38.99458504 41.50112724 C-38.98882657 38.53189801 -38.98890682 35.5627535 -38.99365044 32.59352303 C-38.99931034 28.44661173 -38.98009886 24.30017783 -38.95825195 20.15332031 C-38.9627536 18.91941559 -38.96725525 17.68551086 -38.97189331 16.41421509 C-38.96198868 15.28555527 -38.95208405 14.15689545 -38.94187927 12.99403381 C-38.93944938 12.01345536 -38.93701948 11.03287691 -38.93451595 10.02258396 C-38.48689579 6.99008309 -37.67393243 5.63500942 -35.55419922 3.44604492 C-24.29535456 -0.42258054 -11.7539715 -0.05185288 0 0 Z " fill="#42b" transform="translate(402.55419921875,74.553955078125)"/>
<path d="M0 0 C0.33 0.66 0.66 1.32 1 2 C1.66 1.67 2.32 1.34 3 1 C14.2712687 0.14270899 24.23362773 1.71144795 35 5 C35.82725586 5.24137695 36.65451172 5.48275391 37.50683594 5.73144531 C58.0729528 11.77583086 72.543281 21.92460024 89.36865234 34.96875 C114.2248647 54.15632532 140.56460961 72.98680827 171 82 C172.52947266 82.48726562 172.52947266 82.48726562 174.08984375 82.984375 C185.05913722 86.04020971 196.68901495 85.74968966 208 86 C206.63029162 93.01722065 198.86312305 97.3354846 193.22167969 101.2265625 C171.6518748 115.42619427 144.01318354 125.86329746 117.89453125 121.38671875 C103.29718917 118.35897581 90.62618784 111.14938471 79 102 C78.19949219 101.41347656 77.39898437 100.82695312 76.57421875 100.22265625 C71.29195182 96.30756429 67.18048125 92.04766523 63 87 C62.09746549 85.9549421 61.19230418 84.91214955 60.28515625 83.87109375 C55.22853959 78.05494924 50.31674007 72.17726553 45.625 66.0625 C40.03805261 58.81799941 33.86840371 52.18108157 27.52734375 45.59472656 C26.24196034 44.25263506 24.97779032 42.89027237 23.71875 41.5234375 C16.47667043 33.83614812 7.23022483 28.94557725 -2 24 C-2.29599372 15.7943963 -1.43794854 8.07562173 0 0 Z " fill="#bb224c" transform="translate(92,154)"/>
<path d="M0 0 C1.65854004 -0.00241699 1.65854004 -0.00241699 3.35058594 -0.00488281 C14.84165517 0.15214668 26.44550555 2.78176024 35.4375 10.375 C40.56744586 17.5761916 42.59703933 22.92230396 42.55102539 31.71386719 C42.55117142 32.44596909 42.55131744 33.17807098 42.5514679 33.93235779 C42.55077276 36.34556062 42.54299908 38.7586857 42.53515625 41.171875 C42.53329065 42.84767617 42.53186742 44.52347788 42.53086853 46.19927979 C42.52705452 50.60513826 42.51723376 55.01096366 42.50616455 59.41680908 C42.49592643 63.91458692 42.49136576 68.41237011 42.48632812 72.91015625 C42.4756105 81.73178535 42.45854747 90.55338992 42.4375 99.375 C38.2362074 101.17125686 34.90750771 101.72957523 30.3125 101.8125 C28.48332031 101.87244141 28.48332031 101.87244141 26.6171875 101.93359375 C23.4375 101.375 23.4375 101.375 21.5078125 99.16015625 C20.41604194 96.31916205 20.1794507 94.38557514 20.4375 91.375 C19.84324219 91.76171875 19.24898437 92.1484375 18.63671875 92.546875 C10.22074961 97.83466899 1.51842384 101.96851114 -8.5625 102.375 C-9.79484375 102.43816406 -11.0271875 102.50132812 -12.296875 102.56640625 C-20.1114928 102.84822983 -26.80482468 102.74523314 -33.5625 98.375 C-34.28050781 97.91609375 -34.99851562 97.4571875 -35.73828125 96.984375 C-42.04010722 92.60650687 -45.44096389 87.78694894 -47.5625 80.375 C-48.57352985 71.39279799 -48.0479176 63.76168647 -42.5625 56.375 C-32.23305725 44.6379378 -18.53426746 41.5902769 -3.5625 40.375 C3.10713453 40.0903487 9.76660594 40.18520639 16.4375 40.375 C16.29949724 30.51188936 16.29949724 30.51188936 11.4375 22.375 C6.82423182 19.84033364 2.18863126 20.03101271 -2.9375 20.0625 C-3.81712402 20.06451416 -4.69674805 20.06652832 -5.60302734 20.06860352 C-13.72427996 20.19151898 -23.18246012 20.68498006 -30.5625 24.375 C-34.0625 24.625 -34.0625 24.625 -37.5625 24.375 C-40.04073733 20.657644 -40.09453788 17.68197331 -39.5625 13.375 C-37.66604816 8.73922884 -34.78719644 6.90783908 -30.5625 4.375 C-20.5775911 0.64791419 -10.57097037 0.01486775 0 0 Z " fill="#42b" transform="translate(526.5625,117.625)"/>
<path d="M0 0 C5.9200731 5.53153635 9.6854694 10.28315849 10.24050903 18.60678101 C10.24624055 19.95708757 10.2411405 21.30746962 10.22705078 22.65771484 C10.22734283 23.39986237 10.22763489 24.14200989 10.22793579 24.90664673 C10.22655072 27.34153235 10.21102871 29.77610582 10.1953125 32.2109375 C10.19157944 33.90629916 10.18873385 35.60166299 10.18673706 37.29702759 C10.1791237 41.74564638 10.15949505 46.19413328 10.1373291 50.6427002 C10.11682107 55.18756324 10.10772476 59.73244771 10.09765625 64.27734375 C10.0762469 73.18495358 10.04213882 82.0924658 10 91 C5.91791075 92.74661733 2.83875306 93.270523 -1.625 93.25 C-2.75164062 93.25515625 -3.87828125 93.2603125 -5.0390625 93.265625 C-8 93 -8 93 -11 91 C-12.1875 87.375 -12.1875 87.375 -13 84 C-13.71542969 84.38671875 -14.43085937 84.7734375 -15.16796875 85.171875 C-29.38870459 92.60418713 -45.26132538 97.68711341 -61.29296875 93.046875 C-63.73941388 91.87731878 -65.82308352 90.60921958 -68 89 C-69.093125 88.278125 -70.18625 87.55625 -71.3125 86.8125 C-78.16610459 79.64012311 -80.4368269 71.11332038 -80.33984375 61.42578125 C-79.59336044 53.90088629 -75.67110601 47.61103811 -70.09765625 42.59375 C-54.77569093 30.95248026 -34.42329248 31.43150983 -16 32 C-16.08772455 30.10333474 -16.19591301 28.20761007 -16.3125 26.3125 C-16.37050781 25.25675781 -16.42851563 24.20101562 -16.48828125 23.11328125 C-17.06771681 19.58801301 -17.72242123 17.75657472 -20 15 C-25.50292209 11.80969833 -30.3544864 11.52378541 -36.625 11.625 C-37.50075684 11.63152588 -38.37651367 11.63805176 -39.27880859 11.64477539 C-46.96968803 11.80226539 -55.01650042 12.50825021 -62 16 C-64.69013339 16.18704404 -67.29686177 16.08581391 -70 16 C-71.78933876 14.21066124 -71.25643059 11.6698379 -71.3125 9.25 C-71.26318044 5.47032819 -71.17596345 3.3592587 -69.5 -0.0625 C-53.21438225 -12.68385376 -16.05536865 -12.06386698 0 0 Z " fill="#42b" transform="translate(851,126)"/>
<path d="M0 0 C0.33 27.72 0.66 55.44 1 84 C5.95053403 79.66828273 10.56245021 75.57425357 14.9375 70.75 C15.44619629 70.19497803 15.95489258 69.63995605 16.47900391 69.06811523 C20.45113365 64.69652908 24.21021788 60.1744883 27.8671875 55.53515625 C28.92292969 54.28025391 28.92292969 54.28025391 30 53 C30.37560059 52.46020508 30.75120117 51.92041016 31.13818359 51.36425781 C33.46072858 48.43714393 35.07301966 47.15610022 38.82275391 46.5246582 C42.19306974 46.40932711 45.50615251 46.47670987 48.875 46.625 C50.62296875 46.66560547 50.62296875 46.66560547 52.40625 46.70703125 C55.27274172 46.77751875 58.13540655 46.87600539 61 47 C60.32807579 50.82941855 59.67696576 52.83083052 57 55.6875 C56.05640625 56.71423828 56.05640625 56.71423828 55.09375 57.76171875 C54.4028125 58.50035156 53.711875 59.23898438 53 60 C51.4972248 61.66416479 49.99730668 63.33091328 48.5 65 C47.73300781 65.84949219 46.96601562 66.69898438 46.17578125 67.57421875 C43.7647046 70.26233113 41.39888171 72.98621579 39.04296875 75.72265625 C37.3519426 77.60768158 35.62702262 79.43018612 33.86328125 81.24609375 C33.31003174 81.82319092 32.75678223 82.40028809 32.18676758 82.99487305 C31.07580914 84.15085513 29.95471303 85.29719218 28.82299805 86.43286133 C27.0790755 88.20220612 27.0790755 88.20220612 25 91 C26.13144968 98.96592898 34.31865018 105.7716931 39.39697266 111.64501953 C43.2977322 116.15832493 47.08187469 120.75326083 50.8203125 125.40234375 C53.81906537 128.97612629 57.06087184 132.3040231 60.34765625 135.61328125 C62.44570043 138.64378952 62.5530149 140.38796574 62 144 C58.34456047 146.43695969 55.5441818 146.34532993 51.3125 146.3125 C50.23101685 146.30621582 50.23101685 146.30621582 49.12768555 146.29980469 C41.1319538 146.1298174 36.04605945 144.30498789 30 139 C28.22580243 136.88035897 26.53594304 134.76583525 24.875 132.5625 C20.31618387 126.63151454 15.58456817 120.8980339 10.703125 115.23046875 C7.32935395 111.26460347 4.17332074 107.1265826 1 103 C0.99383667 104.79401245 0.99383667 104.79401245 0.98754883 106.62426758 C0.96579027 111.0583008 0.9115353 115.49144245 0.84741211 119.92504883 C0.82420336 121.84455831 0.80982965 123.76419566 0.80444336 125.68383789 C0.79517454 128.44238225 0.754232 131.19890763 0.70703125 133.95703125 C0.71293022 135.24623222 0.71293022 135.24623222 0.71894836 136.56147766 C0.6636292 138.81614855 0.56487431 140.81658472 0 143 C-3.95077672 146.50277639 -7.99362169 146.42865212 -13.0625 146.3125 C-13.76955078 146.31572266 -14.47660156 146.31894531 -15.20507812 146.32226562 C-19.25165162 146.28047003 -21.28825795 145.85587103 -25 144 C-25 97.47 -25 50.94 -25 3 C-17 0 -17 0 0 0 Z " fill="#42b" transform="translate(704,73)"/>
<path d="M0 0 C3.28130664 1.35233767 4.62332778 2.47594051 6.125 5.6875 C6.43695313 6.33074219 6.74890625 6.97398438 7.0703125 7.63671875 C13.3164144 23.51441475 10.81840931 41.60537798 4.78515625 57.125 C1.26640072 64.95805579 -3.83515041 71.08589628 -9.54443359 77.38867188 C-10.9710331 78.96793332 -12.3719305 80.56694607 -13.76953125 82.171875 C-19.63617735 88.83556276 -25.90290564 94.64405946 -33 100 C-33.52432617 100.39928711 -34.04865234 100.79857422 -34.58886719 101.20996094 C-55.83709991 117.28733018 -87.48236901 136.26319627 -115.0078125 135.49609375 C-121.01080352 134.50081978 -126.73910511 132.38286276 -132.5 130.46484375 C-140.90422297 127.68016608 -149.19229112 126.63629836 -158 126 C-155.08013439 124.05342292 -152.86318121 123.21315947 -149.5390625 122.1875 C-147.88596069 121.66446289 -147.88596069 121.66446289 -146.19946289 121.13085938 C-145.01989014 120.75767578 -143.84031738 120.38449219 -142.625 120 C-130.88079967 116.20713514 -119.90045551 111.56826729 -108.95336914 105.88867188 C-106.98456058 104.99297594 -105.11030366 104.45513464 -103 104 C-102.67 104.99 -102.34 105.98 -102 107 C-97.51638084 104.78747385 -93.04446403 102.55283771 -88.58056641 100.30078125 C-86.81339675 99.41000737 -85.04476665 98.52212659 -83.27490234 97.63671875 C-59.8705136 85.89205918 -38.1525659 72.13378567 -20 53 C-19.45859375 52.43023437 -18.9171875 51.86046875 -18.359375 51.2734375 C-8.16098322 40.14388821 -3.88263551 28.96150403 -2.375 14.125 C-2.13598738 11.8772643 -1.89395669 9.6298468 -1.6484375 7.3828125 C-1.49640869 5.90385498 -1.49640869 5.90385498 -1.34130859 4.39501953 C-1 2 -1 2 0 0 Z " fill="#42b" transform="translate(258,29)"/>
<path d="M0 0 C1.155 -0.01224609 2.31 -0.02449219 3.5 -0.03710938 C12.21131534 -0.05202601 19.07675726 1.24753397 27.25 4.3125 C28.19875 4.66570312 29.1475 5.01890625 30.125 5.3828125 C30.82625 5.64835937 31.5275 5.91390625 32.25 6.1875 C32.30423638 8.10385217 32.34289963 10.02064925 32.375 11.9375 C32.39820313 13.00484375 32.42140625 14.0721875 32.4453125 15.171875 C32.25487687 18.11220106 31.77670104 19.71111878 30.25 22.1875 C24.93340309 22.45332985 20.63107561 22.14084987 15.5 20.6875 C5.59429667 18.03756662 -3.26373597 18.32868073 -12.75 22.1875 C-12.96756982 23.74372858 -13.12196528 25.30886107 -13.25 26.875 C-13.38921875 28.18017578 -13.38921875 28.18017578 -13.53125 29.51171875 C-12.44707343 33.22502349 -10.64643818 34.06712777 -7.35302734 35.92163086 C-0.98962903 39.01619288 5.65174442 41.45893717 12.25195312 43.99414062 C20.50102667 47.24489348 29.62165855 50.98322294 35.25 58.1875 C38.25681968 65.76425141 38.60269115 75.42259858 36.1796875 83.2890625 C31.93395882 91.95891183 24.15184082 97.08457263 15.25 100.1875 C7.32649904 102.14404016 -0.48918885 102.57446179 -8.625 102.5625 C-9.76670654 102.56088867 -10.90841309 102.55927734 -12.0847168 102.55761719 C-21.48194636 102.42073501 -29.4060101 101.48644349 -37.546875 96.4609375 C-39.75 94.1875 -39.75 94.1875 -40.30859375 91.0234375 C-40.26863281 89.88132812 -40.22867188 88.73921875 -40.1875 87.5625 C-40.16558594 86.41523438 -40.14367187 85.26796875 -40.12109375 84.0859375 C-39.75 81.1875 -39.75 81.1875 -37.75 79.1875 C-35.4296875 78.8515625 -35.4296875 78.8515625 -32.625 78.8125 C-31.71492187 78.78414063 -30.80484375 78.75578125 -29.8671875 78.7265625 C-26.89565522 79.16596201 -25.57694103 79.7417705 -23.0390625 81.1796875 C-18.15562032 83.77839706 -13.69183468 83.78119012 -8.25 83.6875 C-7.35152344 83.70296875 -6.45304688 83.7184375 -5.52734375 83.734375 C0.78214489 83.69763853 4.8147138 82.38771524 10.25 79.1875 C10.3857675 77.60656283 10.48234745 76.02223048 10.5625 74.4375 C10.64951172 73.11492187 10.64951172 73.11492187 10.73828125 71.765625 C10.45407316 69.05709471 10.45407316 69.05709471 8.39453125 67.1015625 C4.02706028 64.44310191 -0.54508917 62.93983389 -5.375 61.3125 C-18.44010252 56.72686966 -31.59848899 51.84017333 -38.75 39.1875 C-40.87147866 32.85173265 -41.0440535 23.97681362 -38.87890625 17.63671875 C-37.66161737 15.58129654 -36.38510404 13.92661829 -34.75 12.1875 C-34.25371094 11.64867187 -33.75742187 11.10984375 -33.24609375 10.5546875 C-23.73329545 1.43157009 -12.5145042 0.00689125 0 0 Z " fill="#42b" transform="translate(625.75,117.8125)"/>
<path d="M0 0 C0.33 0.66 0.66 1.32 1 2 C1.66 1.67 2.32 1.34 3 1 C14.2712687 0.14270899 24.23362773 1.71144795 35 5 C35.82725586 5.24137695 36.65451172 5.48275391 37.50683594 5.73144531 C58.0729528 11.77583086 72.543281 21.92460024 89.36865234 34.96875 C114.2248647 54.15632532 140.56460961 72.98680827 171 82 C172.52947266 82.48726562 172.52947266 82.48726562 174.08984375 82.984375 C185.05913722 86.04020971 196.68901495 85.74968966 208 86 C207.42599106 88.79390064 207.03779793 89.95590242 205.125 92.1875 C201.19117854 94.46911644 198.01007293 94.56676453 193.5234375 94.7265625 C190.75455822 94.83007928 190.75455822 94.83007928 188 97 C161.40897982 104.47872443 133.34899308 95.6462769 110 83 C109.10796875 82.51789063 108.2159375 82.03578125 107.296875 81.5390625 C92.18548558 72.8825381 77.91163303 61.31708089 65.82421875 48.82421875 C63.95993182 46.95993182 62.01307275 45.26407213 60 43.5625 C57.07434571 41.05398002 54.52334897 38.41269383 52 35.5 C48.28596864 31.23999885 44.38238889 27.56207663 40 24 C39.01902344 23.19304687 38.03804687 22.38609375 37.02734375 21.5546875 C25.63290732 12.36217457 14.1900937 7.29551356 0 4 C0 2.68 0 1.36 0 0 Z " fill="#c94e70" transform="translate(92,154)"/>
<path d="M0 0 C0.66 0 1.32 0 2 0 C2.03440186 0.58152832 2.06880371 1.16305664 2.10424805 1.76220703 C4.07961922 33.06801195 12.37536549 60.93055917 28.20605469 87.99975586 C31 92.80408415 31 92.80408415 31 95 C31.99 95 32.98 95 34 95 C37.27165008 97.2434172 37.93097122 98.64230541 38.6875 102.5625 C38.28035634 109.61527888 33.54676638 115.41316212 28.765625 120.26953125 C18.71009595 128.86273663 6.63063558 132.78882146 -6 136 C-6.65484375 136.19722656 -7.3096875 136.39445313 -7.984375 136.59765625 C-10.89646374 137.17894528 -13.72194007 137.13164179 -16.6875 137.125 C-17.84636719 137.12757813 -19.00523438 137.13015625 -20.19921875 137.1328125 C-23 137 -23 137 -24 136 C-24.29570519 128.93192465 -23.50648352 122.22859757 -22.4375 115.25 C-22.26259033 114.08879639 -22.08768066 112.92759277 -21.9074707 111.73120117 C-20.13674318 100.31512011 -17.97488533 88.97968104 -15.78564453 77.63793945 C-13.49639398 65.75938809 -11.37297041 53.85771326 -9.3125 41.9375 C-5.51913932 20.06809089 -5.51913932 20.06809089 -3.6875 10.6875 C-3.46670776 9.52432251 -3.46670776 9.52432251 -3.24145508 8.33764648 C-2.56813264 4.98758173 -1.9252453 2.88786795 0 0 Z " fill="#361b96" transform="translate(42,119)"/>
<path d="M0 0 C3.32255304 2.07500439 6.23284064 4.46568128 8 8 C8.09834867 9.46883016 8.13502844 10.94201444 8.14044189 12.41412354 C8.14900711 13.80619774 8.14900711 13.80619774 8.15774536 15.22639465 C8.15886322 16.24770981 8.15998108 17.26902496 8.16113281 18.32128906 C8.16609772 19.39458969 8.17106262 20.46789032 8.17617798 21.57371521 C8.19082735 25.13769158 8.1976067 28.70162342 8.203125 32.265625 C8.20887475 34.73704022 8.2146325 37.20845542 8.22039795 39.67987061 C8.23091624 44.86845101 8.23675329 50.05701589 8.24023438 55.24560547 C8.24571677 61.89483443 8.26973606 68.54385328 8.29820633 75.1930275 C8.31682992 80.30082803 8.3220382 85.4085792 8.32357025 90.51641083 C8.3265986 92.96761952 8.3346332 95.41882731 8.34775543 97.87000275 C8.36480749 101.3005379 8.36293729 104.73057248 8.35644531 108.16113281 C8.3656601 109.17435104 8.37487488 110.18756927 8.3843689 111.23149109 C8.34502205 117.86798028 7.411311 122.22333885 2.9375 127.375 C-0.64930047 129.3591875 -3.36735474 129.60040795 -7.40234375 129.82421875 C-11.58124717 128.49828097 -13.82041433 125.74218456 -16 122 C-16.84735239 118.23399393 -16.80106277 114.57573502 -16.74462891 110.72802734 C-16.75193024 109.61337601 -16.75923157 108.49872467 -16.76675415 107.35029602 C-16.78292243 103.67821678 -16.75578763 100.00791451 -16.7265625 96.3359375 C-16.7255249 93.77959189 -16.72656184 91.22324467 -16.72958374 88.66690063 C-16.7294045 83.31543116 -16.70926593 77.96458147 -16.67236328 72.61328125 C-16.62998943 66.43334848 -16.62301924 60.25415906 -16.6354872 54.07411039 C-16.64688837 48.11690761 -16.63535892 42.15992806 -16.61314011 36.20274734 C-16.60544009 33.67258378 -16.60313803 31.14239787 -16.6063118 28.61222458 C-16.60705298 25.07877678 -16.58182038 21.54646136 -16.54931641 18.01318359 C-16.55427124 16.96682236 -16.55922607 15.92046112 -16.56433105 14.84239197 C-16.46001031 7.74231605 -16.46001031 7.74231605 -14.07504272 3.89370728 C-9.89285482 0.07699567 -5.68624712 -1.24716944 0 0 Z " fill="#9b2" transform="translate(286,94)"/>
<path d="M0 0 C7.87374853 3.06024234 12.8277158 7.07285024 17.25 14.25 C18.125 16.625 18.125 16.625 18.25 19.25 C18.31058594 19.95640625 18.37117188 20.6628125 18.43359375 21.390625 C18.88730402 30.13485932 16.54102985 37.85314053 11 44.6875 C7.53104512 48.3198746 3.90501199 50.44713675 -0.75 52.25 C-2.2659375 52.8378125 -2.2659375 52.8378125 -3.8125 53.4375 C-14.48070777 56.38828087 -24.39877859 55.25 -35.75 55.25 C-35.75 36.77 -35.75 18.29 -35.75 -0.75 C-26.98182692 -5.13408654 -9.24134903 -2.74975963 0 0 Z " fill="#fff" transform="translate(427.75,95.75)"/>
<path d="M0 0 C3.61138843 1.92219062 5.68383024 4.05149071 7 8 C7.10850315 9.91556149 7.15886158 11.83462759 7.17700195 13.75317383 C7.18983719 14.9348262 7.20267242 16.11647858 7.21589661 17.3339386 C7.22328354 18.61205917 7.23067047 19.89017975 7.23828125 21.20703125 C7.246353 22.52031906 7.25442474 23.83360687 7.26274109 25.18669128 C7.2777545 27.96829092 7.28759893 30.74986514 7.29516602 33.53149414 C7.30622345 37.08579985 7.34062072 40.6394783 7.38033772 44.19356251 C7.4128466 47.59385989 7.41728603 50.99409049 7.42578125 54.39453125 C7.44328934 55.66657913 7.46079742 56.93862701 7.47883606 58.2492218 C7.45894787 66.34645483 6.75390199 69.97796216 1.25 75.875 C-2.14470168 77.57235084 -5.33436671 77.63443653 -9 77 C-12.39357797 75.30321102 -14.41558272 74.15525071 -16.14292908 70.7407074 C-17.10884667 67.65193442 -17.28783277 65.07120283 -17.33813477 61.83618164 C-17.36057755 60.61463882 -17.38302032 59.39309601 -17.40614319 58.13453674 C-17.4235984 56.1672184 -17.4235984 56.1672184 -17.44140625 54.16015625 C-17.44830915 53.48821165 -17.45521206 52.81626705 -17.46232414 52.12396049 C-17.49806768 48.57034978 -17.52165744 45.01689597 -17.53540039 41.46313477 C-17.55197065 37.80293767 -17.61044766 34.14466514 -17.67854404 30.485116 C-17.72340781 27.65998447 -17.7369 24.83531245 -17.74201775 22.00985527 C-17.75370126 20.00778345 -17.79874281 18.00599559 -17.84437561 16.00440979 C-17.80151446 7.14751827 -17.80151446 7.14751827 -15.4841156 3.82972717 C-10.65214186 -0.45928552 -6.32023425 -1.41373661 0 0 Z " fill="#9b2" transform="translate(254,129)"/>
<path d="M0 0 C3.3125 1.8125 3.3125 1.8125 6 4 C6.5420961 4.43059723 7.0841922 4.86119446 7.64271545 5.30484009 C9.53701353 7.6706949 9.38703594 9.30124174 9.40405273 12.31005859 C9.41673691 13.3948349 9.42942108 14.47961121 9.44248962 15.59725952 C9.43955399 16.76914825 9.43661835 17.94103699 9.43359375 19.1484375 C9.4388356 20.35311676 9.44407745 21.55779602 9.44947815 22.79898071 C9.45590682 25.34937773 9.4545505 27.89980437 9.44604492 30.45019531 C9.43754844 34.35275177 9.46626587 38.25383875 9.49804688 42.15625 C9.49965926 44.63281206 9.49908065 47.10937672 9.49609375 49.5859375 C9.51294472 51.33769791 9.51294472 51.33769791 9.53013611 53.12484741 C9.46045989 61.2287562 9.46045989 61.2287562 7.09228516 65.1953125 C2.88767303 68.82197444 -0.35879313 69.44082761 -5.8125 69.32421875 C-9.09118104 68.83827138 -10.7650725 67.37037765 -13 65 C-15.20431819 61.69352271 -15.25912269 60.64737371 -15.29052734 56.79760742 C-15.30328705 55.73607956 -15.31604675 54.6745517 -15.32919312 53.58085632 C-15.33141876 52.43397842 -15.33364441 51.28710052 -15.3359375 50.10546875 C-15.3425943 48.92535721 -15.3492511 47.74524567 -15.35610962 46.52937317 C-15.36624307 44.03025879 -15.37092643 41.53111732 -15.37060547 39.03198242 C-15.37497094 35.21292303 -15.41126434 31.39502612 -15.44921875 27.57617188 C-15.45508828 25.14844145 -15.45905676 22.72070554 -15.4609375 20.29296875 C-15.47530853 19.15216354 -15.48967957 18.01135834 -15.50448608 16.83598328 C-15.46865808 10.60006418 -15.29049062 6.68402013 -11 2 C-7.29595151 -0.46936566 -4.29739085 -0.67553682 0 0 Z " fill="#9b2" transform="translate(317,120)"/>
<path d="M0 0 C1.5778125 0.02707031 1.5778125 0.02707031 3.1875 0.0546875 C5.75099422 0.10129649 8.31248094 0.1666973 10.875 0.25 C12.62721068 3.75442137 12.18683537 7.70084431 12.25 11.5625 C12.30607422 12.84543945 12.30607422 12.84543945 12.36328125 14.15429688 C12.42463968 18.55505981 12.36404953 20.59735995 9.65625 24.2109375 C1.25451909 30.37063347 -8.91054892 31.80910813 -19.125 30.25 C-24.17385159 27.37085395 -27.27439229 24.80182312 -29.125 19.25 C-29.67814879 15.72367649 -29.7308864 13.29759713 -27.9140625 10.15625 C-20.58945418 0.94031089 -11.23992812 -0.37180424 0 0 Z " fill="#fff" transform="translate(825.125,172.75)"/>
<path d="M0 0 C1.51303711 0.02030273 1.51303711 0.02030273 3.05664062 0.04101562 C5.51750621 0.07600424 7.97720335 0.12508842 10.4375 0.1875 C10.58325327 3.58287852 10.67171542 6.97744902 10.75 10.375 C10.79189453 11.33470703 10.83378906 12.29441406 10.87695312 13.28320312 C11.00030843 20.41313947 11.00030843 20.41313947 8.234375 24.21875 C0.40718119 29.7283948 -8.12092978 31.29351251 -17.5625 30.1875 C-22.66464832 28.99455165 -25.6551188 26.5485718 -28.5625 22.1875 C-30.1172669 19.07796621 -29.84894437 16.62483239 -29.5625 13.1875 C-25.9550046 6.37334202 -21.34385864 3.11718946 -14.19458008 0.80493164 C-9.4844513 -0.29996732 -4.81092048 -0.12417333 0 0 Z " fill="#fff" transform="translate(533.5625,172.8125)"/>
<path d="M0 0 C3.7891877 1.61654765 5.96042584 3.40044148 8 7 C9.30718192 13.39916829 9.46164067 20.98359474 6.58984375 26.91015625 C4.14301911 30.12649823 1.93400131 31.63646592 -2.078125 32.390625 C-6.15053399 32.69536309 -9.53232203 32.25169951 -13.0625 30.125 C-16.38125639 26.95988974 -16.44285225 23.69093863 -16.57006836 19.33544922 C-16.53384594 7.55965901 -16.53384594 7.55965901 -14 4 C-9.68282136 0.29956116 -5.61637278 -1.44063094 0 0 Z " fill="#9b2" transform="translate(220,154)"/>
<path d="M0 0 C0.33 0.66 0.66 1.32 1 2 C1.66 1.67 2.32 1.34 3 1 C5.61518725 0.90131369 8.19784734 0.86103035 10.8125 0.875 C11.52470703 0.87113281 12.23691406 0.86726562 12.97070312 0.86328125 C16.77280929 0.87031567 20.30487007 1.085292 24 2 C24 2.66 24 3.32 24 4 C22.96875 4.12375 21.9375 4.2475 20.875 4.375 C17.09850682 4.80946562 17.09850682 4.80946562 14.25 6.25 C9.17686098 7.42072439 4.85056133 5.60534592 0 4 C0 2.68 0 1.36 0 0 Z " fill="#c94e70" transform="translate(92,154)"/>
<path d="M0 0 C0.90105469 0.02707031 1.80210937 0.05414063 2.73046875 0.08203125 C3.76107422 0.13423828 3.76107422 0.13423828 4.8125 0.1875 C2.00445732 3.15154505 -0.37065774 5.63249019 -4.1875 7.1875 C-5.5075 5.8675 -6.8275 4.5475 -8.1875 3.1875 C-5.67753317 0.01043235 -3.96125134 -0.15433447 0 0 Z " fill="#bb224c" transform="translate(288.1875,247.8125)"/>
<path d="M0 0 C0 0.99 0 1.98 0 3 C-1.01320313 3.18175781 -1.01320313 3.18175781 -2.046875 3.3671875 C-3.38492187 3.61855469 -3.38492187 3.61855469 -4.75 3.875 C-5.63171875 4.03742188 -6.5134375 4.19984375 -7.421875 4.3671875 C-9.86947744 4.96796264 -11.80599857 5.77997117 -14 7 C-14 6.01 -14 5.02 -14 4 C-9.24625198 -0.15952952 -6.0147159 -0.41480799 0 0 Z " fill="#9b2" transform="translate(286,94)"/>
<path d="M0 0 C0.33 1.32 0.66 2.64 1 4 C-2.90456127 7.53269829 -5.80177328 9.63855967 -11 11 C-9.63310446 7.84930578 -8.14342115 5.99108226 -5.5 3.8125 C-4.8915625 3.30332031 -4.283125 2.79414062 -3.65625 2.26953125 C-2 1 -2 1 0 0 Z " fill="#42b" transform="translate(600,123)"/>
<path d="M0 0 C0.33 0 0.66 0 1 0 C2.10128201 6.05705103 2.08079308 11.13484056 0 17 C-0.66 17.66 -1.32 18.32 -2 19 C-3.29384979 14.51865271 -2.61333104 11.18505684 -1.5625 6.6875 C-1.13130859 4.80611328 -1.13130859 4.80611328 -0.69140625 2.88671875 C-0.46324219 1.93410156 -0.23507813 0.98148438 0 0 Z " fill="#361b96" transform="translate(38,133)"/>
<path d="M0 0 C0.33 0.99 0.66 1.98 1 3 C0.71125 3.556875 0.4225 4.11375 0.125 4.6875 C-1.5147312 8.05805857 -1.62781866 11.27818659 -2 15 C-2.99 15 -3.98 15 -5 15 C-5.27338445 9.62343913 -5.38994303 6.43300242 -2 2 C-1.34 1.34 -0.68 0.68 0 0 Z " fill="#6B4E9D" transform="translate(492,124)"/>
<path d="M0 0 C0.6875 1.75 0.6875 1.75 1 4 C-0.3125 6.25 -0.3125 6.25 -2 8 C-2.66 8 -3.32 8 -4 8 C-4.66 6.68 -5.32 5.36 -6 4 C-4.02 2.68 -2.04 1.36 0 0 Z " fill="#694ec9" transform="translate(160,128)"/>
<path d="M0 0 C0.33 0 0.66 0 1 0 C1.33 2.64 1.66 5.28 2 8 C1.01 8.33 0.02 8.66 -1 9 C-0.67 6.03 -0.34 3.06 0 0 Z " fill="#361b96" transform="translate(38,133)"/>
</svg>