<?xml version="1.0" encoding="UTF-8"?>
<svg xmlns="http://www.w3.org/2000/svg" version="1.1" width="224" height="224" style="background: transparent;">

<path d="M0 0 C1.52101318 -0.01981934 1.52101318 -0.01981934 3.07275391 -0.04003906 C15.87687903 -0.05255328 27.45625166 2.27260633 37.08203125 11.1875 C44.04399938 18.95335552 45.4442401 27.01444502 45.2109375 37.16796875 C44.39529881 51.27986622 34.89392083 62.99212263 24.875 72.1875 C22.33005569 74.2674454 19.69571877 76.1832821 17 78.0625 C16.26604004 78.57570801 15.53208008 79.08891602 14.77587891 79.61767578 C0.25149774 89.56778988 -16.55780393 98.56673665 -34.125 101.1875 C-33.50971436 101.47157715 -32.89442871 101.7556543 -32.26049805 102.04833984 C-25.95654964 105.06361133 -20.48357251 108.58129471 -14.9375 112.8125 C-13.27477219 114.05733522 -11.61201138 115.30212636 -9.94921875 116.546875 C-8.34095056 117.76015787 -6.73286851 118.97368752 -5.125 120.1875 C8.1961006 130.19597844 21.17846095 139.15761705 36.875 145.1875 C37.69097656 145.5175 38.50695312 145.8475 39.34765625 146.1875 C47.50818769 149.09897605 56.30337624 148.91671886 64.875 149.1875 C57.36864701 158.90566971 46.27146607 164.11071539 34.875 168.1875 C34.00617188 168.5071875 33.13734375 168.826875 32.2421875 169.15625 C20.28872254 173.00990438 7.25221694 172.56754696 -4.125 167.1875 C-16.92158872 160.22946253 -25.76540533 150.59335272 -34.79296875 139.42333984 C-48.33636999 120.71542128 -48.33636999 120.71542128 -68.125 111.1875 C-68.23569824 111.74622803 -68.34639648 112.30495605 -68.46044922 112.88061523 C-68.97257383 115.46228816 -69.48627923 118.04364423 -70 120.625 C-70.17402344 121.50349609 -70.34804687 122.38199219 -70.52734375 123.28710938 C-70.87948041 125.05431373 -71.23545155 126.82075825 -71.59521484 128.58642578 C-71.94249113 130.29144033 -72.28165812 131.99813115 -72.61181641 133.70654297 C-74.13742903 141.22640662 -77.18820611 146.44107116 -83.625 150.875 C-92.09617531 155.66235003 -102.27391195 159.48796892 -112.125 159.1875 C-112.455 158.8575 -112.785 158.5275 -113.125 158.1875 C-113.10419953 147.02202844 -110.85354126 136.05354016 -108.8125 125.125 C-108.49113233 123.37494124 -108.17033594 121.62477749 -107.85009766 119.87451172 C-107.08291322 115.69277091 -106.3069414 111.51273768 -105.52593994 107.33355713 C-105.17787376 105.47051025 -104.83168827 103.60711219 -104.48583984 101.74365234 C-103.55796835 96.74969429 -102.60325085 91.76195465 -101.62402344 86.77783203 C-101.03466963 83.71861292 -100.47538096 80.6543273 -99.9140625 77.58984375 C-99.48483757 75.3098087 -99.055156 73.02985957 -98.625 70.75 C-98.43534668 69.68797363 -98.24569336 68.62594727 -98.05029297 67.53173828 C-96.71504536 60.579706 -95.15534846 56.12872056 -90 51.125 C-79.34702304 43.94581988 -67.99643899 40.41863086 -55.125 41.1875 C-55.56823462 48.16844526 -56.87711461 54.73665315 -58.53979492 61.51220703 C-60.041643 67.67783099 -61.2284311 73.86249234 -62.31640625 80.11328125 C-63.3201957 85.53089667 -64.75303048 90.85390626 -66.125 96.1875 C-29.7310871 84.94372145 -29.7310871 84.94372145 -4.1875 58.125 C-1.36195808 51.42603306 -0.96208966 44.33338352 -2.125 37.1875 C-5.14361449 31.52252169 -8.13212563 29.32457802 -14.01953125 27.1015625 C-43.87928173 19.15631231 -88.74866456 31.35325008 -114.9375 46.25 C-115.91332031 46.83910156 -116.88914062 47.42820313 -117.89453125 48.03515625 C-118.99861328 48.60556641 -118.99861328 48.60556641 -120.125 49.1875 C-120.785 48.8575 -121.445 48.5275 -122.125 48.1875 C-103.73275813 24.54033188 -70.33202864 11.95594153 -42.125 5.1875 C-40.97209473 4.90350342 -40.97209473 4.90350342 -39.79589844 4.61376953 C-26.40662154 1.3396686 -13.79049815 0.12109749 0 0 Z " fill="#532B95" transform="translate(132.125,26.8125)"/>
<path d="M0 0 C1.52101318 -0.01981934 1.52101318 -0.01981934 3.07275391 -0.04003906 C15.87687903 -0.05255328 27.45625166 2.27260633 37.08203125 11.1875 C44.04399938 18.95335552 45.4442401 27.01444502 45.2109375 37.16796875 C44.39529881 51.27986622 34.89392083 62.99212263 24.875 72.1875 C22.33005569 74.2674454 19.69571877 76.1832821 17 78.0625 C16.26604004 78.57570801 15.53208008 79.08891602 14.77587891 79.61767578 C0.84539666 89.16093178 -18.76814087 101.32488939 -36.125 101.1875 C-39.48252378 100.44410666 -42.61878235 99.43972542 -45.85546875 98.28125 C-50.84112698 96.61340734 -55.92959775 95.89894247 -61.125 95.1875 C-58.05127107 93.4921959 -54.86658567 92.38810785 -51.54125977 91.28564453 C-32.87007474 85.05279769 -13.83299069 76.33827293 -4.1875 58.125 C-1.36195808 51.42603306 -0.96208966 44.33338352 -2.125 37.1875 C-5.14361449 31.52252169 -8.13212563 29.32457802 -14.01953125 27.1015625 C-43.87928173 19.15631231 -88.74866456 31.35325008 -114.9375 46.25 C-115.91332031 46.83910156 -116.88914062 47.42820313 -117.89453125 48.03515625 C-118.99861328 48.60556641 -118.99861328 48.60556641 -120.125 49.1875 C-120.785 48.8575 -121.445 48.5275 -122.125 48.1875 C-103.73275813 24.54033188 -70.33202864 11.95594153 -42.125 5.1875 C-40.97209473 4.90350342 -40.97209473 4.90350342 -39.79589844 4.61376953 C-26.40662154 1.3396686 -13.79049815 0.12109749 0 0 Z " fill="#42b" transform="translate(132.125,26.8125)"/>
<path d="M0 0 C8.26094336 5.11531724 15.82828845 11.2173078 23.51953125 17.13793945 C36.42977385 27.02873861 49.26464627 35.31824706 64.48046875 41.1640625 C65.33511719 41.51210937 66.18976563 41.86015625 67.0703125 42.21875 C75.15801785 45.12202885 83.98066533 44.89555019 92.48046875 45.1640625 C84.97411576 54.88223221 73.87693482 60.08727789 62.48046875 64.1640625 C61.61164063 64.48375 60.7428125 64.8034375 59.84765625 65.1328125 C47.89419129 68.98646688 34.85768569 68.54410946 23.48046875 63.1640625 C10.68388003 56.20602503 1.84006342 46.56991522 -7.1875 35.39990234 C-21.45848494 17.48865198 -21.45848494 17.48865198 -40.51953125 5.1640625 C-40.45961719 3.20487282 -40.37085987 1.24654721 -40.26953125 -0.7109375 C-40.19992188 -2.34675781 -40.19992188 -2.34675781 -40.12890625 -4.015625 C-39.51953125 -6.8359375 -39.51953125 -6.8359375 -37.85546875 -8.21875 C-25.7336737 -11.42149853 -10.65973599 -5.5605726 0 0 Z " fill="#9C0E4F" transform="translate(104.51953125,130.8359375)"/>
<path d="M0 0 C0.66 0 1.32 0 2 0 C6.72619265 9.04141203 7.54452691 18.55484797 5.1640625 28.48828125 C0.11054438 42.64830686 -9.71138563 53.39559848 -21.875 61.875 C-22.60895996 62.38820801 -23.34291992 62.90141602 -24.09912109 63.43017578 C-38.02960334 72.97343178 -57.64314087 85.13738939 -75 85 C-78.35752378 84.25660666 -81.49378235 83.25222542 -84.73046875 82.09375 C-89.71612698 80.42590734 -94.80459775 79.71144247 -100 79 C-96.1225294 76.86281148 -91.98626874 75.55191399 -87.8125 74.125 C-82.44244225 72.26927118 -77.25467444 70.29088888 -72.11572266 67.85791016 C-70.02444102 67.00991066 -68.16832224 66.60756069 -65.94921875 66.234375 C-60.07457431 64.97852418 -55.08003925 62.3162342 -49.8125 59.5 C-48.29619995 58.69695435 -48.29619995 58.69695435 -46.74926758 57.87768555 C-28.87644929 48.23759402 -9.92984716 35.4264238 -2.671875 15.5625 C-1.68921546 11.81468223 -1.36777926 8.11190281 -1.17578125 4.25 C-1 2 -1 2 0 0 Z " fill="#4E2C86" transform="translate(171,43)"/>
<path d="M0 0 C24.0557478 0.07734967 40.66734338 11.83153551 59.0390625 25.97387695 C71.9493051 35.86467611 84.78417752 44.15418456 100 50 C100.85464844 50.34804687 101.70929688 50.69609375 102.58984375 51.0546875 C110.6775491 53.95796635 119.50019658 53.73148769 128 54 C123.90884897 59.01495932 120.36025279 60.25462905 114 61 C87.60003486 63.08868169 66.96628617 54.98547639 47 38 C41.56705117 33.28855832 36.35387039 28.43345178 31.37109375 23.25 C21.7992308 13.32385221 12.82950319 6.32424383 0 1 C0 0.67 0 0.34 0 0 Z " fill="#DA1F57" transform="translate(69,122)"/>
<path d="M0 0 C0.66 0.99 1.32 1.98 2 3 C2.66 3 3.32 3 4 3 C4.12375 3.77859375 4.2475 4.5571875 4.375 5.359375 C7.40416533 21.7925969 13.79741623 37.68583985 24 51 C24.99 51.495 24.99 51.495 26 52 C25.78412649 57.28890106 24.69954981 60.41018711 21.0625 64.30078125 C12.17867054 71.61984529 -0.5243695 75.90892357 -12 76 C-12.33 75.67 -12.66 75.34 -13 75 C-12.97919989 63.83471792 -10.72906774 52.86579909 -8.6875 41.9375 C-8.36908525 40.20501519 -8.0512175 38.47242977 -7.73388672 36.73974609 C-6.96761778 32.56639602 -6.19237711 28.39477777 -5.41387939 24.22369385 C-4.8309388 21.0916669 -4.25763463 17.95788731 -3.68359375 14.82421875 C-3.33158868 12.92431972 -2.97881814 11.02456222 -2.625 9.125 C-2.46990967 8.28316162 -2.31481934 7.44132324 -2.1550293 6.57397461 C-1.11767657 1.11767657 -1.11767657 1.11767657 0 0 Z " fill="#502477" transform="translate(32,110)"/>
<path d="M0 0 C1.71984863 1.08546448 1.71984863 1.08546448 3 3 C3.39440918 6.14317322 3.39440918 6.14317322 3.41992188 10.07006836 C3.42839142 10.78584549 3.43686096 11.50162262 3.44558716 12.23908997 C3.4689943 14.60618843 3.46997849 16.97263829 3.46875 19.33984375 C3.47584945 20.98507447 3.48354813 22.63030271 3.49182129 24.27552795 C3.50527466 27.72468955 3.50683113 31.17362223 3.50097656 34.62280273 C3.49508002 39.04287383 3.52566497 43.46184666 3.56609344 47.88170528 C3.59194409 51.27980974 3.5948503 54.67764885 3.59120178 58.07583809 C3.59289557 59.70534589 3.60256309 61.33486562 3.62034607 62.96427727 C3.64248551 65.24377783 3.63286282 67.52104415 3.61523438 69.80053711 C3.61728882 71.0972081 3.61934326 72.39387909 3.62145996 73.72984314 C3 77 3 77 0.61779785 79.41481018 C-2.37180759 81.22514557 -3.58816417 81.76766306 -7 81 C-10.29021809 78.37145159 -11.83206047 76.88429224 -12.62818909 72.69224548 C-12.62915085 71.43634109 -12.63011261 70.18043671 -12.63110352 68.88647461 C-12.63825882 68.18991257 -12.64541412 67.49335052 -12.65278625 66.77568054 C-12.66963161 64.48389165 -12.65030048 62.19407046 -12.62890625 59.90234375 C-12.62973525 58.30481301 -12.63219583 56.70728236 -12.63621521 55.10975647 C-12.6390702 51.76651241 -12.62440059 48.42393942 -12.59692383 45.08081055 C-12.56281305 40.79761625 -12.56887078 36.51561943 -12.5875864 32.23236752 C-12.59815854 28.93545057 -12.58921727 25.63881192 -12.57420158 22.34192085 C-12.56902269 20.7626891 -12.56949805 19.18342825 -12.57574654 17.60420036 C-12.58120281 15.39687533 -12.56081545 13.19126087 -12.53344727 10.98413086 C-12.52724869 9.72902206 -12.52105011 8.47391327 -12.5146637 7.18077087 C-11.29498022 -0.35722666 -6.48384744 -0.72042749 0 0 Z " fill="#94C51C" transform="translate(190,84)"/>
<path d="M0 0 C1.0209375 -0.01160156 1.0209375 -0.01160156 2.0625 -0.0234375 C4.59126005 0.49658977 5.38357947 1.38619305 7 3.375 C7.38768005 5.2653656 7.38768005 5.2653656 7.40405273 7.41577148 C7.41673691 8.22348495 7.42942108 9.03119843 7.44248962 9.86338806 C7.43808617 11.16657738 7.43808617 11.16657738 7.43359375 12.49609375 C7.4388356 13.39240005 7.44407745 14.28870636 7.44947815 15.21217346 C7.4559011 17.10766565 7.45455781 19.00319769 7.44604492 20.89868164 C7.43754131 23.79841176 7.46628127 26.69616803 7.49804688 29.59570312 C7.49965914 31.43749941 7.49908087 33.27929918 7.49609375 35.12109375 C7.50732773 35.9878624 7.51856171 36.85463104 7.53013611 37.74766541 C7.4608303 43.738284 7.4608303 43.738284 5.15649414 46.92211914 C2.20031724 48.9137651 0.49374707 48.95729118 -3 48.375 C-5.15649414 46.92211914 -5.15649414 46.92211914 -7 44.375 C-7.58665791 41.29053869 -7.53668314 38.25280812 -7.49609375 35.12109375 C-7.4982766 33.7751992 -7.4982766 33.7751992 -7.50050354 32.40211487 C-7.49884579 30.50835924 -7.48729837 28.61458998 -7.46655273 26.72094727 C-7.43756737 23.81924395 -7.44595203 20.91936428 -7.45898438 18.01757812 C-7.45274775 16.17707444 -7.44435741 14.33657653 -7.43359375 12.49609375 C-7.43652939 11.62730087 -7.43946503 10.758508 -7.44248962 9.86338806 C-7.42980545 9.05567459 -7.41712128 8.24796112 -7.40405273 7.41577148 C-7.39864975 6.70613754 -7.39324677 5.9965036 -7.38768005 5.2653656 C-6.55168115 1.18895374 -3.89475988 -0.04425863 0 0 Z " fill="#94C314" transform="translate(165,105.625)"/>
<path d="M0 0 C4.16044334 0.76416306 5.43910273 2.28250325 8.0625 5.5625 C8.5517166 8.28924384 8.74430281 10.37937097 8.69140625 13.09375 C8.69381821 13.80728638 8.69623016 14.52082275 8.69871521 15.25598145 C8.69773935 16.75876444 8.68440765 18.26158454 8.65942383 19.76416016 C8.62509342 22.05626287 8.63877762 24.34450972 8.65820312 26.63671875 C8.65130418 28.10157881 8.64163133 29.56642897 8.62890625 31.03125 C8.63386612 31.71159302 8.63882599 32.39193604 8.64393616 33.09289551 C8.55863695 36.56257964 8.08608446 38.5243896 6.24584961 41.49804688 C4.0625 43.5625 4.0625 43.5625 0.5625 44.125 C-3.55819555 43.46274536 -4.49090153 42.87818082 -6.9375 39.5625 C-7.33556287 36.79108117 -7.49935389 34.42445576 -7.46875 31.65625 C-7.4725769 30.89453491 -7.47640381 30.13281982 -7.48034668 29.34802246 C-7.48306313 27.74095332 -7.47572044 26.13383976 -7.45898438 24.52685547 C-7.43756786 22.07028413 -7.45879178 19.61663689 -7.484375 17.16015625 C-7.48173167 15.59634773 -7.47660658 14.03254102 -7.46875 12.46875 C-7.47684692 11.73636108 -7.48494385 11.00397217 -7.49328613 10.24938965 C-7.43007501 6.80266704 -7.18523794 4.89185804 -5.08789062 2.10351562 C-2.9375 0.5625 -2.9375 0.5625 0 0 Z " fill="#A2B322" transform="translate(205.9375,99.4375)"/>
<path d="M0 0 C2.5 1.375 2.5 1.375 4 4 C4.9033534 9.10179588 4.82482914 12.75025888 1.9375 17.125 C-1.71570476 19.45683283 -3.74012918 19.63109197 -8 19 C-9.6875 17.875 -9.6875 17.875 -11 16 C-11.3984375 12.96875 -11.3984375 12.96875 -11.375 9.5 C-11.38660156 7.78296875 -11.38660156 7.78296875 -11.3984375 6.03125 C-11 3 -11 3 -9.72265625 1.12109375 C-6.70030128 -0.84583568 -3.41969109 -0.58485663 0 0 Z " fill="#95C319" transform="translate(148,122)"/>
<path d="M0 0 C0.33 0 0.66 0 1 0 C1.33 4.62 1.66 9.24 2 14 C1.01 14.33 0.02 14.66 -1 15 C-2.01603857 9.20858017 -1.96263236 5.5415502 0 0 Z " fill="#5E3683" transform="translate(34,99)"/>
<path d="M0 0 C6.93 0.495 6.93 0.495 14 1 C14 1.33 14 1.66 14 2 C12.35 2 10.7 2 9 2 C9 2.66 9 3.32 9 4 C6.03 3.01 3.06 2.02 0 1 C0 0.67 0 0.34 0 0 Z " fill="#BF1B54" transform="translate(69,122)"/>
<path d="M0 0 C3.96 0 7.92 0 12 0 C11.01 1.485 11.01 1.485 10 3 C3.375 2.25 3.375 2.25 0 0 Z " fill="#EB3D6B" transform="translate(185,176)"/>
</svg>